<?xml version="1.0" encoding="UTF-8" standalone="no"?>
<svg
   xmlns:dc="http://purl.org/dc/elements/1.1/"
   xmlns:cc="http://creativecommons.org/ns#"
   xmlns:rdf="http://www.w3.org/1999/02/22-rdf-syntax-ns#"
   xmlns:svg="http://www.w3.org/2000/svg"
   xmlns="http://www.w3.org/2000/svg"
   viewBox="0 0 1466.6667 1066.6667"
   height="1066.6667"
   width="1466.6667"
   xml:space="preserve"
   id="svg2"
   version="1.1"><metadata
     id="metadata8"><rdf:RDF><cc:Work
         rdf:about=""><dc:format>image/svg+xml</dc:format><dc:type
           rdf:resource="http://purl.org/dc/dcmitype/StillImage" /></cc:Work></rdf:RDF></metadata><defs
     id="defs6" /><g
     transform="matrix(1.3333333,0,0,-1.3333333,0,1066.6667)"
     id="g10"><g
       transform="scale(0.1)"
       id="g12"><path
         id="path14"
         style="fill:#f2f2f2;fill-opacity:1;fill-rule:nonzero;stroke:none"
         d="M 0,0 H 11000 V 8000 H 0 Z" /><path
         id="path16"
         style="fill:#404f5a;fill-opacity:1;fill-rule:nonzero;stroke:none"
         d="m 5048.29,3471.15 c 0,0 -106.31,-415.59 29.25,-434.29 77.56,-10.71 62.46,-195.66 62.46,-195.66 l 73.16,-1568.04 132.77,25.73 c 0,0 270.63,1551.45 275.37,1574.2 4.73,22.75 106.9,598.06 106.9,598.06 h -679.91" /><path
         id="path18"
         style="fill:#404f5a;fill-opacity:1;fill-rule:nonzero;stroke:none"
         d="m 5639.2,3088.66 -17.9,-215.57 460.44,-1564.67 131.48,18.5 -111.4,1419.36 c 0,0 -22.37,772.44 66.15,789.59 147.53,28.57 -5.68,-360.16 -5.68,-360.16 l -523.09,-87.05" /><path
         id="path20"
         style="fill:#363636;fill-opacity:1;fill-rule:nonzero;stroke:none"
         d="m 5345.93,1298.89 110.03,-124.45 -47.62,-86.38 -139.1,15.92 -56.08,169.18 132.77,25.73" /><path
         id="path22"
         style="fill:#363636;fill-opacity:1;fill-rule:nonzero;stroke:none"
         d="m 6080.72,1310.19 -55.24,-133.62 41.33,-135.86 98.43,-0.71 50.9,144.82 -4.15,159.05 -131.27,-33.68" /><path
         id="path24"
         style="fill:#9e6652;fill-opacity:1;fill-rule:nonzero;stroke:none"
         d="m 6430.24,2970.97 c -52.39,109.85 -96.38,535.12 -108.06,808.37 v 0 c 2.7,187.75 -17.02,370.28 -93.8,554.67 -75.58,181.51 -281.89,661.84 -512.68,691.9 -183.52,23.9 -376.71,-112.68 -519.64,-270.71 l 0.04,-0.08 c 0.13,0.15 0.37,0.42 0.37,0.42 0,0 -240.6,-263.56 -233.11,-838.17 2.38,-182.92 -24.07,-338.39 -56.39,-467.59 -69.21,-276.66 -165.39,-432.73 -63.36,-478.81 28.42,-12.83 63.05,-21.08 101.83,-25.58 165.47,-19.24 406.61,29.96 564.26,84.73 194.59,67.6 606.21,-33.8 606.21,-33.8 0,0 68.3,-25.18 141.74,-44.97 96.73,-26.09 202.37,-42.83 172.59,19.62" /><path
         id="path26"
         style="fill:#363636;fill-opacity:1;fill-rule:nonzero;stroke:none"
         d="m 5594.48,5479.99 c 66.76,-13.72 149.06,-78.12 165.15,-157.63 7.75,-38.29 -3.29,-73.55 6.44,-114.16 18.92,-80.15 -66.96,-198.21 18.06,-253.92 43.69,-28.63 98.31,-19.36 148.03,-9.21 6.02,1.23 12.33,2.6 17.1,6.94 7.85,7.15 9.17,20.51 6.19,31.39 -2.98,10.89 -9.36,20.07 -14.94,29.56 -58.42,99.18 -44.27,241.45 -66.98,354.4 -22.68,112.74 -76.32,225.03 -175.24,271.3 -49.32,-36.07 -92.14,-72.46 -104.43,-137.34 l 0.62,-21.33" /><path
         id="path28"
         style="fill:#eacdb0;fill-opacity:1;fill-rule:nonzero;stroke:none"
         d="m 5678.24,4994.64 c 64.23,31.02 106.78,104.84 120.77,182.12 13.99,77.27 2.9,157.71 -16.01,233.64 -62.93,252.65 -343.77,180.28 -409.25,-35.77 -57.07,-188.3 117.75,-470.17 304.49,-379.99" /><path
         id="path30"
         style="fill:#363636;fill-opacity:1;fill-rule:nonzero;stroke:none"
         d="m 5351.28,4839.45 c 31.52,22.14 62.44,45.3 80.71,86.63 29.52,66.8 17.07,170.59 20.59,243.06 3.69,76.39 9.85,159.62 56.24,215.38 30.29,36.42 67.57,46.41 109.65,51.26 28.82,3.31 30.86,-8.91 53.94,10.93 17.69,15.21 30.64,56.78 33.19,80.6 4.29,40.18 -12.91,80.46 -38.33,108.99 -39.13,43.9 -83.04,63.33 -136.71,59.51 -188.41,-13.44 -320.06,-152.92 -357.39,-365.47 -17.94,-102.17 9.31,-211.36 -10.62,-309.93 -12.31,-60.87 -42.94,-103.58 -51.8,-167.98 -22.99,-167.11 -87.26,-384.18 -68.37,-552.86 0.7,-6.24 1.88,-13.12 6.35,-16.88 9.1,-7.65 21,3.89 27.65,14.27 38.78,60.65 77.56,121.3 116.34,181.95 15.23,23.81 30.66,48.04 39.48,75.67 21.97,68.8 1.55,153.09 39.46,212.39 20.69,32.36 50.42,51.98 79.62,72.48" /><path
         id="path32"
         style="fill:#ac7060;fill-opacity:1;fill-rule:nonzero;stroke:none"
         d="m 5089.17,4753.54 114.97,-54.19 -173.53,-856.18 -77.56,-134.73 c 0,0 -293.58,161.05 -195.73,440.76 97.86,279.72 331.85,604.34 331.85,604.34" /><path
         id="path34"
         style="fill:#ac7060;fill-opacity:1;fill-rule:nonzero;stroke:none"
         d="m 6202.25,4757.71 -118.3,-44.11 110.14,-796.32 99.71,-180.7 c 0,0 277.03,102.57 198.4,389.91 -78.64,287.35 -289.95,631.22 -289.95,631.22" /><path
         id="path36"
         style="fill:#e498b5;fill-opacity:1;fill-rule:nonzero;stroke:none"
         d="m 4699.93,5375.21 c 0,348.49 400.23,631 893.93,631 493.71,0 893.93,-282.51 893.93,-631 0,-348.5 -400.22,-631.02 -893.93,-631.02 -19.62,0 -39.09,0.48 -58.39,1.37 -8.76,0.4 -15.61,-7.48 -14.03,-16.11 l 71.23,-388.49 c 2.48,-13.55 -14.38,-21.84 -23.59,-11.6 l -465.13,516.82 c -1.23,1.35 -2.71,2.44 -4.35,3.21 -240.88,113.05 -399.67,306.33 -399.67,525.82" /><path
         id="path38"
         style="fill:#eacdb0;fill-opacity:1;fill-rule:nonzero;stroke:none"
         d="m 6195.51,4718.94 -37.77,77.31 20.2,74.45 -11.8,12.84 -14.59,-15.76 1.1,67.21 -30.14,42.65 -64.21,-3.83 -50.17,-49.17 10.13,-71.57 48.17,-66.9 47.62,-108.37 81.46,41.14" /><path
         id="path40"
         style="fill:#eacdb0;fill-opacity:1;fill-rule:nonzero;stroke:none"
         d="m 5077.54,4723.55 43.91,78.49 -17.08,79.56 13.1,12.64 14.44,-17.57 2.56,70.62 33.99,42.65 67.18,-8.55 49.94,-55.14 -14.59,-74.42 -54.25,-66.82 -55.98,-110.38 -83.22,48.92" /><path
         id="path42"
         style="fill:#ebceb1;fill-opacity:1;fill-rule:nonzero;stroke:none"
         d="m 4237.12,1276.5 -136.63,357.48 185.54,34.03 92.56,-364.56 -141.47,-26.95" /><path
         id="path44"
         style="fill:#ebceb1;fill-opacity:1;fill-rule:nonzero;stroke:none"
         d="m 3212.46,1296.46 -26.26,303.4 h 195.36 l -40.42,-289.67 -128.68,-13.73" /><path
         id="path46"
         style="fill:#59595b;fill-opacity:1;fill-rule:nonzero;stroke:none"
         d="m 3132.31,3223.4 -17.02,-237.04 34.03,-1501.03 h 279.4 l 154.72,1109.88 104.97,340.24 -16.9,422.51 -539.2,-134.56" /><path
         id="path48"
         style="fill:#59595b;fill-opacity:1;fill-rule:nonzero;stroke:none"
         d="m 3939.39,3293.28 -261.41,22.28 -0.22,-410.59 404.26,-1420.52 278.59,49.43 -104.57,1190.83 c 0,0 73.84,415.13 20.49,470.3 116.48,20.66 185.29,-40.75 64.1,255.28 -238.33,-59.44 -401.24,-157.01 -401.24,-157.01" /><path
         id="path50"
         style="fill:#59595b;fill-opacity:1;fill-rule:nonzero;stroke:none"
         d="m 3430.46,5316.74 c -26.15,-78.53 11.7,-162.26 44.93,-233.82 29.46,-63.46 39.71,-105.23 -35.09,-122.35 -42.15,-9.65 -116.94,-27.66 -153.9,4.61 -27.99,24.45 -12.25,99.94 1.36,129.93 10.4,22.9 37.92,34.54 47.71,57.71 4.03,9.54 4.61,20.16 4.76,30.52 0.59,42.34 -5.27,84.76 -17.31,125.36 -8.17,27.56 -19.24,54.63 -21.71,83.28 -3.58,41.54 25.79,89.94 41.23,128.11 28.71,71 128.66,166.25 212.35,110.51 19.06,-12.69 30.16,-34.14 39.43,-55.08 5.54,-12.5 10.81,-25.54 10.97,-39.22 0.64,-54.51 -49.13,-63.71 -83.51,-89.65 -42.39,-32 -74.53,-79.79 -91.22,-129.91" /><path
         id="path52"
         style="fill:#eacdb0;fill-opacity:1;fill-rule:nonzero;stroke:none"
         d="m 3589.64,5010.32 c -72.59,17.1 -129.35,78.05 -156.62,147.47 -27.27,69.41 -28.7,146.38 -21.16,220.57 25.1,246.9 332.24,231.05 436.25,41.82 90.63,-164.92 -47.4,-459.58 -258.47,-409.86" /><path
         id="path54"
         style="fill:#59595b;fill-opacity:1;fill-rule:nonzero;stroke:none"
         d="m 3826.24,5303.95 c 3.11,-38.6 -17.13,-81.52 4.07,-113.91 9.45,-14.44 25.3,-23.09 38.7,-33.95 36.6,-29.68 55.57,-79.64 47.89,-126.13 77.3,2.98 154.59,5.96 231.88,8.94 11.65,0.45 23.89,1.07 33.86,7.11 21.32,12.92 22.44,42.88 21.06,67.77 -2.73,49.02 -6.72,101.49 -37.25,139.94 -14.16,17.82 -33.16,31.33 -47.26,49.2 -67.79,85.95 -1.47,236.87 -83.99,308.8 -36.83,32.09 -90.23,34.47 -135.37,53.15 -78.7,32.58 -130.42,114.14 -211.06,141.54 -152.31,51.75 -299.86,-133.97 -209.59,-269.67 73.63,-110.67 334.5,-77.36 347.06,-232.79" /><path
         id="path56"
         style="fill:#6a8478;fill-opacity:1;fill-rule:nonzero;stroke:none"
         d="m 3022.33,3121.36 c 118.3,25.35 480.99,255.77 583.06,253.49 380.25,-8.44 371.8,-287.29 785.85,-363.35 414.06,-76.05 674.34,-101.6 624.47,4.14 0.01,0 0.02,0.01 0.03,0.03 -168.49,354.55 -328.79,711.19 -475.59,1078.77 -74.83,187.36 -146.98,378.15 -255.88,549.06 -76.99,120.8 -210.66,326.09 -353.61,359.7 -2.99,0.7 -5.99,1.38 -9.01,2.04 -150.31,32.99 -342.91,17.68 -478.74,-55.39 -25.76,-13.86 -48.69,-32.33 -71.45,-50.68 -66.42,-53.58 -120.58,-82.59 -149.21,-164.24 -24.87,-70.88 -30.65,-148.25 -44.35,-221.7 -27.86,-149.26 -82.92,-137.23 -66.7,-450.41 20.78,-401.44 -99.05,-598.26 -159.04,-847 0,0 -6.13,-25.35 -9.07,-37.46 -3.44,-32.72 5.96,-72.71 79.24,-57" /><path
         id="path58"
         style="fill:#6e6358;fill-opacity:1;fill-rule:nonzero;stroke:none"
         d="m 3216.68,1307.94 -160.54,-109.85 v -76.05 l 312.65,42.25 -25.35,143.65 h -126.76" /><path
         id="path60"
         style="fill:#ffffff;fill-opacity:1;fill-rule:nonzero;stroke:none"
         d="m 3689.89,5014.17 c 0,0 -312.65,42.25 -380.25,-447.85 -60.08,-435.61 -8.45,-743.6 -42.25,-819.66 -33.8,-76.05 -152.1,-591.5 -152.1,-591.5 l 405.6,135.19 c 0,0 160.55,50.7 760.51,-253.49 0,0 -142.35,540.26 -211.25,836.55 -84.51,363.35 -84.51,1140.76 -380.26,1140.76" /><path
         id="path62"
         style="fill:#6e6358;fill-opacity:1;fill-rule:nonzero;stroke:none"
         d="m 4378.59,1303.45 -140.1,-24.91 -104.99,-150.48 63.94,-76.19 148.76,78.96 32.39,172.62" /><path
         id="path64"
         style="fill:#6a8478;fill-opacity:1;fill-rule:nonzero;stroke:none"
         d="m 2969.62,4893.52 -123.44,-572.44 106.65,-309.43 230.88,-115.44 -65.39,971.04 -148.7,26.27" /><path
         id="path66"
         style="fill:#6a8478;fill-opacity:1;fill-rule:nonzero;stroke:none"
         d="m 4213.43,4983.28 180.19,-555.99 -67.27,-318.77 -206.59,-139 -44.66,972.03 138.33,41.73" /><path
         id="path68"
         style="fill:#78bdb1;fill-opacity:1;fill-rule:nonzero;stroke:none"
         d="m 4253.34,5531.54 c -0.42,0.49 -0.82,0.99 -1.24,1.47 0.53,-0.35 1.07,-0.68 1.6,-1.02 -0.11,-0.15 -0.24,-0.3 -0.36,-0.45 z m 193.61,593.94 c -28.56,1.55 -56.43,-0.69 -83.17,-6.22 -21.11,186.84 -174.62,336.71 -368.77,347.2 -131.1,7.09 -250.49,-51.06 -326.86,-146.04 -35.83,89.1 -122.81,152.29 -224.82,152.91 -112.86,0.69 -208.17,-75.4 -236.44,-179.27 -38.06,41.63 -91.77,69.03 -152.55,72.32 -122.96,6.65 -227.97,-87.55 -234.53,-210.4 -0.13,-2.41 -0.15,-4.79 -0.21,-7.18 -21.6,5.84 -44.1,9.57 -67.34,10.83 -178.34,9.64 -330.64,-126.98 -340.17,-305.17 -7.8,-145.95 82.64,-274.46 213.62,-321.49 -7.11,-26.24 -11.64,-53.59 -13.15,-81.83 C 2601,5235 2767,5050.31 2983.33,5038.61 c 108.75,-5.88 209.47,33.13 284.26,100.79 9.64,-125.03 113.81,-223.89 241.55,-224.67 67.87,-0.41 129.35,26.99 173.76,71.46 14.59,-22.27 106.25,-149.29 298.03,-148.88 0,0 -71.58,58.28 -85.79,179.11 30.77,-11.82 63.84,-19.21 98.54,-21.09 144.97,-7.83 272.73,80.98 320.58,210.2 30.49,-18.59 65.87,-30.13 104.02,-32.2 122.96,-6.65 227.96,87.55 234.53,210.4 2.98,55.64 -14.79,107.57 -46.5,148.39 83.37,54.37 140.58,146.31 146.3,253.28 9.53,178.18 -127.32,330.44 -305.66,340.08" /><path
         id="path70"
         style="fill:#ebceb1;fill-opacity:1;fill-rule:nonzero;stroke:none"
         d="m 3153.87,4912.38 43.33,152.08 -64.19,21.36 -52.74,-97.58 -25.67,24.19 -21.22,-134.66 63.73,-31.2 56.76,65.81" /><path
         id="path72"
         style="fill:#ebceb1;fill-opacity:1;fill-rule:nonzero;stroke:none"
         d="m 4106.36,4974.81 -30.82,154.57 62.66,17.08 43.54,-100.82 26.15,22.44 10.94,-135.73 -62.9,-26.93 -49.57,69.39" /><path
         id="path74"
         style="fill:#cbccce;fill-opacity:1;fill-rule:nonzero;stroke:none"
         d="m 8184.52,4909.55 497.36,483.62 145.64,17.81 c -94.51,-247.18 -324.22,-581.1 -477.08,-800.09 l -0.12,-1.03 -206.71,-40.97 -649.14,327.61 263.54,420.63 c 0,0 425.22,-407.48 426.51,-407.58" /><path
         id="path76"
         style="fill:#eacdb0;fill-opacity:1;fill-rule:nonzero;stroke:none"
         d="m 7701.65,5516.69 c -10.43,24.74 -30.1,44.52 -51.54,60.68 -80.57,60.74 -189.92,76.24 -288.23,53.5 -38.51,-8.9 -78.76,-25.76 -98.07,-60.27 -11,-19.66 -13.81,-42.71 -16.41,-65.09 -7.52,-64.71 -15.05,-129.42 -22.57,-194.13 -1.81,-15.66 -3.61,-31.67 -0.16,-47.04 10.94,-48.82 66.78,-70.65 114.82,-84.61 -1.42,-15.45 -2.4,-30.95 -2.99,-46.45 0.36,-1.92 21.23,-112.78 162.65,-68.5 11.39,3.56 19.81,13.24 21.98,24.98 4.38,23.76 10.17,46.15 29.15,59.76 18.97,13.6 44.75,12.55 65.99,22.2 40.02,18.19 53.44,67.34 62.23,110.4 7.64,37.45 15.28,74.9 22.93,112.34 8.28,40.56 16.3,84.08 0.22,122.23" /><path
         id="path78"
         style="fill:#3a3029;fill-opacity:1;fill-rule:nonzero;stroke:none"
         d="m 8026.21,5691.18 c -1.27,44.02 -9.86,88.16 -20.81,127.76 -18.82,68.06 -101.75,94.62 -172.35,95.69 -152.49,2.32 -302.83,63.26 -448.3,2.07 -83.17,-34.97 -196.65,-48.43 -271.09,-95.43 -31.07,-19.62 -55.12,-48.93 -73.35,-80.84 -63.18,-110.56 -55.4,-257.74 19.08,-361.03 16.72,-23.17 36.34,-44.11 56.84,-64 42.43,-41.19 93.28,-92.15 149.23,-105.18 -1.42,49.33 -54.89,202.15 -19.32,244.61 56.49,67.4 193.45,52.58 268.79,40.94 82.18,-12.7 157.78,-66.21 238.99,-74.03 58.43,-5.63 130.82,26.89 178.43,59.58 74.61,51.21 96.18,130.34 93.86,209.86" /><path
         id="path80"
         style="fill:#504a45;fill-opacity:1;fill-rule:nonzero;stroke:none"
         d="M 8161,3095.77 7950.13,1273.09 h -162.75 l -187.29,1654.07 -282.27,30.59 560.55,398.42 269.69,1.79 12.94,-262.19" /><path
         id="path82"
         style="fill:#363636;fill-opacity:1;fill-rule:nonzero;stroke:none"
         d="m 7787.11,1276.5 1.14,-2.38 66.65,-139.77 103.02,-9.53 62.32,48.48 -75.31,103.2 h -157.82" /><path
         id="path84"
         style="fill:#504a45;fill-opacity:1;fill-rule:nonzero;stroke:none"
         d="m 6771.57,3300.8 c -48.86,-7.97 -66.02,-37.62 -77.17,-103.52 -14.64,-86.62 186.22,39.6 236.91,-36.79 64.39,-97.04 52.33,-300.21 82.68,-451.28 18.96,-94.39 -19.15,-220.46 -25.79,-316.3 -14.55,-210.1 -62.91,-880.95 -77.47,-1091.04 0,-0.01 174.16,-25.76 174.16,-25.76 l 484.48,1624.93 72.64,308.77 -211.66,116.67 c -126.16,-17.38 -275.28,-62.17 -402.1,-55.38 -72.62,3.89 -142.32,29.96 -215.05,31.87 -15.99,0.42 -29.75,-0.24 -41.63,-2.17" /><path
         id="path86"
         style="fill:#363636;fill-opacity:1;fill-rule:nonzero;stroke:none"
         d="m 6910.99,1305.56 0.84,-2.73 49.21,-160.12 108.75,-26.49 74.36,42.02 -64.27,122.35 -168.89,24.97" /><path
         id="path88"
         style="fill:#cbccce;fill-opacity:1;fill-rule:nonzero;stroke:none"
         d="m 8334.1,3163.6 c -177.45,152.09 -162.15,578.47 -162.17,578.52 l -165.14,849.36 c -15.46,79.49 -48.4,154.54 -96.43,219.73 l -115.67,156.98 -525.46,107.79 c 0,0 -303.16,53.89 -489.24,-916 -40.6,-211.61 -106.02,-464.08 -117.21,-726.56 -20.03,-122.22 -59.13,-239.12 -82.92,-360.34 -6.91,-35.24 -19.36,-96.21 11.83,-124.37 37.92,-34.25 112.01,-20.3 152.07,-8.25 138.71,41.7 274.91,106.52 414.92,143.67 157.39,41.77 318.53,84.91 481.34,99.01 126.86,10.99 226.66,-28.31 347.63,-53.34 71.01,-14.69 90.67,-46.27 162.49,-56.03 176,-23.91 309.99,-18.18 183.96,89.83" /><path
         id="path90"
         style="fill:#769787;fill-opacity:1;fill-rule:nonzero;stroke:none"
         d="m 7210.31,5248.34 -166.03,-333.32 844.3,-243.63 34.1,296.8 -712.37,280.15" /><path
         id="path92"
         style="fill:#83a296;fill-opacity:1;fill-rule:nonzero;stroke:none"
         d="m 7647.29,5191.19 -195.81,-64.32 -306.09,-241.03 -35.07,-1390.61 558.67,79.82 -130.21,1180.35 295.21,178.81 79.8,94.23 -266.5,162.75" /><path
         id="path94"
         style="fill:#d98b43;fill-opacity:1;fill-rule:nonzero;stroke:none"
         d="m 6828.64,6700.65 1692.35,3.25 c 156.65,0.3 283.87,-126.44 284.18,-283.09 l 2.1,-1090.87 c 0.29,-156.01 -125.46,-282.98 -281.47,-284.17 l -271.94,-2.09 -309.23,-435.6 c -9.03,-12.73 -29.07,-6.53 -29.33,9.07 l -7.17,425.86 -1076.97,0.46 c -156.38,0.07 -283.21,126.71 -283.51,283.09 l -2.09,1089.91 c -0.31,156.65 126.44,283.88 283.08,284.18" /><path
         id="path96"
         style="fill:#ebceb1;fill-opacity:1;fill-rule:nonzero;stroke:none"
         d="m 7051.21,5175.54 30.27,163.67 -69.38,15.99 -45.56,-107.49 -29.3,22.79 -8.85,-143.21 69.89,-26.36 52.93,74.61" /><path
         id="path98"
         style="fill:#cbccce;fill-opacity:1;fill-rule:nonzero;stroke:none"
         d="m 6598.86,4499.71 316.27,677.07 136,-59.39 -195.89,-880.6 -258.76,262.39 c 0.8,0.18 1.59,0.35 2.38,0.53" /><path
         id="path100"
         style="fill:#ebceb1;fill-opacity:1;fill-rule:nonzero;stroke:none"
         d="m 8806.99,5566.8 c 0,0 -28.03,-7.47 -31.48,-13.8 -3.45,-6.32 -6.91,-18.4 -6.91,-18.4 0,0 -17.82,-26.44 -16.09,-44.84 1.73,-18.39 -0.58,-29.89 2.87,-43.11 3.46,-13.23 -2.31,-27.52 24.32,-35.67 26.62,-8.15 31.12,-13.21 38.92,-8.03 7.81,5.18 6.87,0.11 8.9,12.42 2.03,12.31 17.28,140.51 -20.53,151.43" /><path
         id="path102"
         style="fill:#363636;fill-opacity:1;fill-rule:nonzero;stroke:none"
         d="m 1062.5,1320.9 -3.96,-89.98 176,-97.88 93.93,86.01 -86.02,93.94 -165.03,96.82 -14.92,-88.91" /><path
         id="path104"
         style="fill:#a8c1cb;fill-opacity:1;fill-rule:nonzero;stroke:none"
         d="m 2095.62,3371.63 192.58,-311.68 -340.26,-1778.25 -166.38,7.85 -48.89,1832.11 46.54,519.17 316.41,-269.2" /><path
         id="path106"
         style="fill:#363636;fill-opacity:1;fill-rule:nonzero;stroke:none"
         d="m 1779.21,1219.34 175.68,-98.45 94.21,85.72 -85.72,94.21 -179.93,8.49 -4.24,-89.97" /><path
         id="path108"
         style="fill:#a8c1cb;fill-opacity:1;fill-rule:nonzero;stroke:none"
         d="m 1877.27,3559.46 -207.51,-77.76 -585.26,394.83 46.42,-520.36 128.96,-180.46 c 28.45,-19.83 -34.05,-415.68 -47.67,-555.47 l -144.57,-1262.84 176.91,-43.53 478.29,1508.49 154.43,737.1" /><path
         id="path110"
         style="fill:#efeeda;fill-opacity:1;fill-rule:nonzero;stroke:none"
         d="m 2394.02,3629.5 c -66.92,226.45 -5.83,15.01 -73.46,241.23 -74.78,251.15 -150.27,503.31 -262.22,740.23 -37.88,80.15 -79.85,158.36 -125.69,234.23 -28.95,47.91 -89.98,187.11 -143.84,207.28 -44.47,16.64 -142.85,-13.46 -191.66,-17.2 -81.81,-6.26 -164.06,-15.48 -242.08,-42.33 -12.8,-4.4 -25.38,-9.27 -37.71,-14.62 -12.46,-5.54 -171.99,-81.31 -191.41,-340.22 -20.21,-269.47 13.47,-700.62 -94.31,-929.66 -107.792,-229.05 -200.464,-467.24 -147.394,-722.03 -0.008,-0.01 -0.012,-0.03 -0.023,-0.05 129.287,89.4 286.277,138.39 443.507,137.62 151.38,-0.73 1167.29,-227.96 1267.13,-64.28 21.75,35.64 -180.46,500.84 -200.84,569.8" /><path
         id="path112"
         style="fill:#b99a6f;fill-opacity:1;fill-rule:nonzero;stroke:none"
         d="m 1270.93,5467.97 c 84.26,224.31 419.07,290.34 485.73,23.14 20.03,-80.29 30.65,-165.05 11.68,-245.6 -18.96,-80.55 -71.65,-156.48 -148.67,-186.76 -0.44,-0.17 -0.88,-0.31 -1.32,-0.48 2.13,-21.18 4.25,-42.37 6.38,-63.55 0.45,-4.55 0.79,-9.57 -1.9,-13.26 -3.07,-4.21 -8.87,-5.12 -14.05,-5.68 -25.3,-2.76 -50.6,-5.52 -75.89,-8.28 -12.54,-1.36 -25.6,-2.67 -37.45,1.65 -25.94,9.45 -35.62,41.37 -35.68,68.97 -0.01,6.6 0.31,13.27 0.67,19.93 -146.82,56.87 -244.59,263.3 -189.5,409.92" /><path
         id="path114"
         style="fill:#483d3f;fill-opacity:1;fill-rule:nonzero;stroke:none"
         d="m 1760.62,5821.45 c 61.45,0.01 103.98,-65.89 154.91,-104.74 42.36,-32.33 93.68,-46.84 138.38,-75.05 44.69,-28.22 85.16,-79.26 77.97,-134.56 52.22,18.03 108.56,36.1 161.32,17.57 52.76,-18.54 93.55,-90.87 63.97,-141.1 -26.49,-44.99 -90.6,-46.98 -118.38,-91.01 -43.93,-69.64 27.72,-198.58 -40.25,-239.01 -16.34,-9.72 -36.6,-9.64 -52.74,-19.75 -20.05,-12.55 -29.64,-37.8 -41.01,-59.83 -51.51,-99.82 -167.73,-152.77 -270.35,-123.16 -60.57,40.17 -103.13,110.9 -115.68,186.5 -15.11,91.12 35.92,114.56 55.9,195.02 21.82,87.94 7.49,186.63 -38.39,264.25 -29.84,50.5 -76.37,97.14 -130.86,110.62 -22.14,5.48 -17.86,-14.31 -40.55,6.82 -9.74,9.08 -20.35,39.49 -21.42,53.48 67.7,39.64 136.34,153.94 217.18,153.95" /><path
         id="path116"
         style="fill:#483d3f;fill-opacity:1;fill-rule:nonzero;stroke:none"
         d="m 1093.23,5802.38 c -32.3,-4.03 -65.79,2.23 -97.257,-6.33 -47.274,-12.87 -51.422,-59.33 -69.926,-97.48 -20.488,-42.23 -49.547,-98.69 -83.883,-128.81 -24.742,-21.7 -56.32,-31.48 -84.816,-46.83 -28.496,-15.35 -56.274,-40.13 -60.864,-74.74 -4.343,-32.8 13.289,-65.45 11.661,-98.6 -3.321,-49.31 -15.45,-73 -7.829,-125.02 3.938,-26.85 8.567,-55.35 25.25,-75.74 21.985,-26.87 58.25,-31.8 90.829,-31.2 32.582,0.59 66.746,4.52 96.531,-10.68 64.59,-32.96 41.683,-99.84 51.215,-160.15 14.515,-91.79 108.599,-158.08 191.019,-138.45 69.89,16.65 119.44,87.56 127.69,163.61 4.13,38.07 -5.7,75.58 -1.16,113.64 4.37,36.69 32.48,84.23 3.68,118.15 -7.03,8.26 -16.81,13.52 -22.87,22.65 -4.89,7.37 -6.85,16.58 -7.58,25.59 -2.57,31.25 8.97,63.2 30.21,83.67 15.26,14.72 35.4,24.14 46.22,43.03 12.39,21.63 9.27,49.55 11.53,75.16 5.44,61.91 47.94,117.11 102.58,133.21 36,10.61 67.72,15.31 100.69,34.69 5.02,2.95 80.81,52.2 80.64,39.15 0.29,22.71 -9.81,44.12 -20.33,63.94 -17.28,32.59 -37.07,64.77 -64.95,86.89 -90.15,71.53 -114.55,-59.96 -191.12,-30.81 -18.47,7.03 -30.24,26.67 -45.88,39.67 -29.53,24.55 -70.44,23.42 -105.84,13.57 -35.39,-9.86 -69.06,-27.25 -105.44,-31.78" /><path
         id="path118"
         style="fill:#c64732;fill-opacity:1;fill-rule:nonzero;stroke:none"
         d="M 2272.75,6031.73 H 814.117 c -119.062,0 -216.48,-97.41 -216.48,-216.48 v -739.67 c 0,-119.07 97.418,-216.48 216.48,-216.48 H 1850.41 l 220.45,-300.19 c 14.55,-19.81 45.81,-11.82 49.07,12.55 l 38.36,287.64 h 114.46 c 119.07,0 216.48,97.41 216.48,216.48 v 739.67 c 0,119.07 -97.41,216.48 -216.48,216.48" /><path
         id="path120"
         style="fill:#b99a6f;fill-opacity:1;fill-rule:nonzero;stroke:none"
         d="m 1241.52,4732.8 41.49,161.19 -68.12,20.74 -52.85,-104.1 -27.67,24.76 -18.7,-142.26 67.9,-31.11 57.95,70.78" /><path
         id="path122"
         style="fill:#efeeda;fill-opacity:1;fill-rule:nonzero;stroke:none"
         d="M 1105.85,4743.43 743.637,4089.78 c -0.332,-0.06 -0.664,-0.11 -0.996,-0.16 l 342.889,-280.94 151.9,866.11 -131.58,68.64" /><path
         id="path124"
         style="fill:#b99a6f;fill-opacity:1;fill-rule:nonzero;stroke:none"
         d="m 2293.88,4889.74 57.32,156.27 67.85,-21.59 -15.55,-115.7 36.83,4.68 -65.34,-127.75 -73.56,12.92 -7.55,91.17" /><path
         id="path126"
         style="fill:#efeeda;fill-opacity:1;fill-rule:nonzero;stroke:none"
         d="m 2338.92,4077.74 72.7,743.76 -147.29,18.16 -290.65,-849.39 367.01,85.81 c -0.59,0.55 -1.18,1.1 -1.77,1.66" /><path
         id="path128"
         style="fill:#504a45;fill-opacity:1;fill-rule:nonzero;stroke:none"
         d="m 9040.47,1275.16 -112.94,-166.48 87.76,-37.61 162.99,119.12 12.54,131.64 -150.35,-46.67" /><path
         id="path130"
         style="fill:#504a45;fill-opacity:1;fill-rule:nonzero;stroke:none"
         d="m 9820.49,1311.13 -80.02,-184.57 93.23,-20.63 138,147.34 -12.17,131.68 -139.04,-73.82" /><path
         id="path132"
         style="fill:#c9cacc;fill-opacity:1;fill-rule:nonzero;stroke:none"
         d="m 8846.03,3250.3 93.73,-589.21 93.72,-1402.33 h 165.13 l 111.58,1355.2 84.79,795.43 c 0,0 -495.39,-70.71 -548.95,-159.09" /><path
         id="path134"
         style="fill:#c9cacc;fill-opacity:1;fill-rule:nonzero;stroke:none"
         d="m 9248.93,3207.17 361.86,-1218.12 196.37,-703.12 165.5,31.33 -94.89,723.57 v 1409.46 c 0,0 -591.61,-146.12 -628.84,-243.12" /><path
         id="path136"
         style="fill:#e1ccb0;fill-opacity:1;fill-rule:nonzero;stroke:none"
         d="m 9214.31,5655.33 c 122.16,-41.34 265.04,30.84 381.04,-26.21 75.43,-37.1 120.09,-124.05 123.82,-209.99 1.75,-40.06 -4.7,-81.57 -25.33,-115.63 -13.39,-22.1 -32.25,-40.27 -52.84,-55.42 -27.53,-20.26 -58.6,-34.97 -91.21,-44.01 9.1,-29.15 20.84,-57.48 35.03,-84.5 -63.11,-7.16 -126.23,-14.32 -189.34,-21.47 -4.17,36.28 -8.33,72.56 -12.5,108.84 -17.02,5.42 -33.6,12.33 -49.33,21.06 -95.13,52.81 -156.6,163.96 -152.14,275.12 2.09,52.08 17.32,102.56 32.8,152.21" /><path
         id="path138"
         style="fill:#6b6359;fill-opacity:1;fill-rule:nonzero;stroke:none"
         d="m 9529.26,5618.54 c -82.21,14.06 -163.16,5.35 -258.45,-13.61 -12.9,-2.57 -26.57,-5.76 -35.68,-15.24 -10.36,-10.77 -12.28,-26.87 -13.66,-41.74 -5.64,-61.04 0.46,-123.22 -5.19,-184.26 1.01,10.89 -71.42,75.71 -79.81,91.22 -23.7,43.83 -34.45,93.81 -54.91,137.1 -19.55,41.38 -41.61,67.57 -43.21,116.87 -1.55,47.61 10.38,94.55 23.31,140.4 10.69,37.93 23.98,78.38 55.81,101.62 30.36,22.18 70.79,23.62 108.35,22.03 144.81,-6.12 287.95,-45.3 416.26,-112.59 47.88,-25.11 131.99,-61.33 153.32,-112.47 13.99,-33.55 22.76,-94.96 28.46,-154.36 l -5.27,-184.95 -125.49,-115.22 -35.62,284.52 c -44.42,20.52 -86.48,33.53 -128.22,40.68" /><path
         id="path140"
         style="fill:#3a332d;fill-opacity:1;fill-rule:nonzero;stroke:none"
         d="m 9271.85,5130.07 432.1,35.43 c 0,0 130.78,-208.91 276.75,-859.65 144.5,-644.2 125.4,-1322.75 125.4,-1322.75 0,0 -581.81,221.7 -1419.41,127.11 l 244.02,1585.55 341.14,434.31" /><path
         id="path142"
         style="fill:#aeccdc;fill-opacity:1;fill-rule:nonzero;stroke:none"
         d="m 10580,5544.33 c -2.9,172.68 -144.2,310.53 -316.5,309.62 0.1,5.43 0.2,10.87 0.2,16.35 -3.5,210.91 -177.3,379.07 -388.23,375.58 -114.76,-1.89 -216.78,-54.27 -285.46,-135.55 -65.95,72.71 -161.63,117.79 -267.5,116.05 -188.41,-3.11 -339.89,-153.21 -347.07,-339.23 -7.99,0.48 -16.03,0.76 -24.16,0.62 -173.89,-2.87 -312.52,-146.15 -309.65,-320.04 2.31,-139.88 95.51,-256.89 222.38,-295.83 -15.12,-37.02 -23.18,-77.63 -22.49,-120.14 2.79,-168.28 141.45,-302.44 309.72,-299.66 12.9,0.21 25.59,1.26 38.05,3.03 l 5.37,-325.92 c 0.44,-14.13 18.67,-19.48 23.69,-12.19 l 201.8,293.23 c 48.7,-31.18 106.77,-48.93 168.94,-47.9 112.76,1.86 210.11,64.77 261.3,156.68 52.82,-31.88 114.91,-49.86 181.11,-48.77 188,3.1 337.8,157.95 334.7,345.86 -0.2,8.17 -0.7,16.24 -1.4,24.27 126.9,42.32 217.5,163.07 215.2,303.94" /><path
         id="path144"
         style="fill:#b99a6f;fill-opacity:1;fill-rule:nonzero;stroke:none"
         d="m 9027.49,4829.85 38.99,161.19 -64.01,20.74 -49.68,-104.09 -25.99,24.75 -17.58,-142.26 63.82,-31.11 54.45,70.78" /><path
         id="path146"
         style="fill:#3a332d;fill-opacity:1;fill-rule:nonzero;stroke:none"
         d="M 8899.99,4840.47 8559.6,4186.83 c -0.31,-0.06 -0.63,-0.11 -0.94,-0.16 l 322.24,-280.94 142.75,866.12 -123.66,68.62" /><path
         id="path148"
         style="fill:#b99a6f;fill-opacity:1;fill-rule:nonzero;stroke:none"
         d="m 9757.77,4844.98 -46.61,158.89 62.95,24.15 54.56,-101.28 24.79,26.12 24.31,-141.13 -62.25,-34.51 -57.75,67.76" /><path
         id="path150"
         style="fill:#3a332d;fill-opacity:1;fill-rule:nonzero;stroke:none"
         d="m 10255.6,4227.96 -371,634.5 -120.23,-75.2 268.83,-850.93 224.7,291.39 c -0.8,0.09 -1.5,0.17 -2.3,0.24" /></g></g></svg>